<svg xmlns="http://www.w3.org/2000/svg" width="137.304" height="24" viewBox="0 0 137.304 24"><defs><style>.a{fill:#fff;}</style></defs><path class="a" d="M34.153,0s2.159,6.916,4.073,11.933a92.581,92.581,0,0,0,5.586,11.274,15.349,15.349,0,0,1,.583-2.046c.313-.925.8-.535.8-.535a.427.427,0,0,1,.2.525c-.049.145-.059.176-.054.16l-.694,2.115s-.178.523-.346.534S34.153,24,34.153,24ZM1.076,23.95a9.255,9.255,0,0,1-1.063-2.2c-.083-.649.224-1.056.734-.4a8.631,8.631,0,0,1,.931,1.723A118.882,118.882,0,0,0,8.572,8.19C11,1.352,11.164,0,11.164,0A51.179,51.179,0,0,0,24.453.906c6.9-.521,8.8-.878,8.8-.878L23.794,23.441a8.945,8.945,0,0,0-1.314-2.128c-.526-.424-.871-.422-.789.435a6.3,6.3,0,0,0,1.073,2.2Zm131.656-9.742V8.753h-.9l-.054-.27h.954V6l1.908-.306v2.79h2.142l-.072.27h-2.07v5.4c0,1.224.468,1.728,1.35,1.728a1.241,1.241,0,0,0,1.08-.7l.234.144a2.675,2.675,0,0,1-2.394,1.638C133.56,16.961,132.732,16.385,132.732,14.207ZM114.372,12.7a4.058,4.058,0,0,1,4.068-4.374c2.358,0,3.672,1.332,3.672,4.158h-5.724c.108,2.088,1.1,3.042,2.394,3.24a2.789,2.789,0,0,0,2.79-1.206l.252.126a3.461,3.461,0,0,1-3.546,2.322A4.08,4.08,0,0,1,114.372,12.7Zm2.016-.486h3.852c0-2.448-.954-3.618-1.872-3.618C117.324,8.591,116.388,10.211,116.388,12.209ZM92.2,12.7a4.058,4.058,0,0,1,4.068-4.374c2.358,0,3.672,1.332,3.672,4.158H94.212c.108,2.088,1.1,3.042,2.394,3.24a2.789,2.789,0,0,0,2.79-1.206l.252.126A3.461,3.461,0,0,1,96.1,16.961,4.08,4.08,0,0,1,92.2,12.7Zm2.016-.486h3.852c0-2.448-.954-3.618-1.872-3.618C95.148,8.591,94.212,10.211,94.212,12.209Zm-7.074,2V8.753h-.9l-.054-.27h.954V6l1.908-.306v2.79h2.142l-.072.27h-2.07v5.4c0,1.224.468,1.728,1.35,1.728a1.241,1.241,0,0,0,1.08-.7l.234.144a2.675,2.675,0,0,1-2.394,1.638C87.966,16.961,87.138,16.385,87.138,14.207ZM128.106,16.8v-.27c.684-.2.72-.738.72-1.656v-3.69a1.6,1.6,0,0,0-1.656-1.764,1.9,1.9,0,0,0-1.692,1.512v3.96c0,.99.108,1.458.738,1.638v.27h-3.348v-.27c.684-.2.7-.72.7-1.638V10.355c0-.63-.162-.846-.9-1.152v-.27l2.808-.612v1.908a3.287,3.287,0,0,1,2.88-1.908c1.422,0,2.376.63,2.376,2.808v3.744c0,.99.09,1.494.738,1.656v.27Zm-21.33,0v-.27c.756,0,1.422-.486,1.422-1.692V4.4h-.7c-.27,0-3.528.054-3.636,3.132h-.27v-3.4h11.43v3.4h-.27C114.642,4.451,111.222,4.4,111.1,4.4h-.7v10.44c0,1.206.666,1.692,1.422,1.692v.27Zm-24.57,0v-.27c.684-.216.72-.738.72-1.656v-4.5c0-.612-.18-.864-.918-1.17v-.27l2.808-.612v6.552c0,.99.09,1.476.738,1.656v.27Zm-4.014,0v-.27c.684-.2.72-.756.72-1.674V11.237c0-1.17-.54-1.782-1.692-1.782a2.118,2.118,0,0,0-1.674,1.26v4.14c0,.99.09,1.494.738,1.656V16.8H72.918v-.288c.684-.2.72-.738.72-1.656V5.387c0-.592-.143-.8-.772-.99-1.072,0-1.918.451-3.476,4.3l-3.042,8.1h-.27L62.964,8.9l-2.808,7.9h-.27L55.494,5.819C54.954,4.451,54.342,4.4,53.8,4.4v-.27h5.292V4.4c-1.584,0-.972,1.746-.936,1.818L61,13.7,62.82,8.5l-.99-2.682C61.308,4.451,60.678,4.4,60.156,4.4v-.27h5.292V4.4c-1.62,0-.972,1.746-.954,1.818l2.754,7.56L69.12,8.627c.252-.864,1.6-4.23-1.188-4.23v-.27h4.806V4.091l2.808-.648v6.876a3.453,3.453,0,0,1,2.9-2c1.458,0,2.376.684,2.376,2.844v3.69c0,.99.108,1.512.738,1.674v.27ZM82.62,5.783A1.068,1.068,0,0,1,83.682,4.7a1.1,1.1,0,0,1,1.1,1.08,1.084,1.084,0,0,1-1.1,1.062A1.053,1.053,0,0,1,82.62,5.783Z" transform="translate(0)"/></svg>