<svg xmlns="http://www.w3.org/2000/svg" width="209.458" height="35.878" viewBox="0 0 209.458 35.878"><path d="M50.5,0s3.191,10.338,6.023,17.839a139.1,139.1,0,0,0,8.259,16.854,22.965,22.965,0,0,1,.862-3.059c.464-1.382,1.18-.8,1.18-.8a.64.64,0,0,1,.289.784c-.072.217-.087.263-.08.238L66,35.021s-.264.781-.511.8-15,.059-15,.059ZM1.591,35.8A13.918,13.918,0,0,1,.02,32.512c-.122-.97.332-1.579,1.085-.59A13.014,13.014,0,0,1,2.48,34.5,178.62,178.62,0,0,0,12.674,12.244C16.26,2.02,16.505,0,16.505,0a74.844,74.844,0,0,0,19.65,1.355C46.358.576,49.162.044,49.162.044l-13.981,35a13.441,13.441,0,0,0-1.943-3.181c-.778-.632-1.289-.63-1.167.651A9.465,9.465,0,0,0,33.656,35.8ZM202.346,22.649V14.164h-1.4l-.084-.42h1.484V9.88l2.967-.476v4.34h3.333l-.113.42h-3.22v8.4c0,1.9.728,2.688,2.1,2.688a1.929,1.929,0,0,0,1.679-1.092l.365.224a4.161,4.161,0,0,1-3.724,2.548C203.634,26.933,202.346,26.036,202.346,22.649ZM173.786,20.3c0-4.032,2.66-6.8,6.328-6.8s5.712,2.073,5.712,6.468h-8.9c.167,3.248,1.707,4.732,3.723,5.04,1.624.252,3.724-.532,4.341-1.876l.391.2c-.364,1.372-1.988,3.613-5.516,3.613C176.306,26.933,173.786,23.8,173.786,20.3Zm3.136-.756h5.991c0-3.808-1.483-5.628-2.911-5.628C178.377,13.912,176.922,16.432,176.922,19.54Zm-37.633.756c0-4.032,2.66-6.8,6.328-6.8s5.712,2.073,5.712,6.468h-8.9c.167,3.248,1.708,4.732,3.724,5.04,1.624.252,3.723-.532,4.34-1.876l.392.2c-.364,1.372-1.988,3.613-5.516,3.613C141.809,26.933,139.289,23.8,139.289,20.3Zm3.137-.756h5.992c0-3.808-1.484-5.628-2.912-5.628C143.881,13.912,142.426,16.432,142.426,19.54Zm-11,3.109V14.164h-1.4l-.085-.42h1.484V9.88L134.39,9.4v4.34h3.332l-.112.42h-3.22v8.4c0,1.9.728,2.688,2.1,2.688a1.931,1.931,0,0,0,1.68-1.092l.364.224a4.16,4.16,0,0,1-3.723,2.548C132.71,26.933,131.422,26.036,131.422,22.649Zm63.728,4.032v-.42c1.064-.308,1.12-1.147,1.12-2.576v-5.74a2.487,2.487,0,0,0-2.576-2.744,2.954,2.954,0,0,0-2.632,2.353v6.16c0,1.54.167,2.268,1.148,2.548v.42H187v-.42c1.064-.308,1.092-1.12,1.092-2.548V16.656c0-.98-.252-1.316-1.4-1.792v-.42l4.369-.952V16.46a5.113,5.113,0,0,1,4.48-2.968c2.211,0,3.7.98,3.7,4.369v5.824c0,1.54.14,2.324,1.148,2.576v.42Zm-33.18,0v-.42c1.176,0,2.212-.756,2.212-2.632V7.388H163.09c-.42,0-5.488.085-5.656,4.873h-.419V6.969h17.779v5.292h-.419c-.168-4.788-5.488-4.873-5.684-4.873H167.6V23.629c0,1.876,1.036,2.632,2.211,2.632v.42Zm-38.219,0v-.42c1.064-.336,1.12-1.147,1.12-2.576v-7c0-.952-.28-1.344-1.428-1.82v-.42l4.369-.952V23.684c0,1.54.139,2.3,1.147,2.576v.42Zm-6.244,0v-.42c1.064-.308,1.12-1.176,1.12-2.6V18.028c0-1.82-.84-2.772-2.632-2.772a3.3,3.3,0,0,0-2.6,1.96v6.44c0,1.54.139,2.324,1.147,2.576v.448H109.3v-.448c1.065-.308,1.121-1.148,1.121-2.576V8.928c0-.921-.223-1.248-1.2-1.54-1.668.007-2.983.7-5.406,6.692l-4.732,12.6h-.42L93.818,14.388,89.45,26.681h-.42L82.2,9.6c-.841-2.128-1.792-2.212-2.632-2.212V6.969H87.8v.419c-2.464,0-1.512,2.716-1.456,2.828l4.424,11.649,2.828-8.092L92.054,9.6c-.812-2.128-1.792-2.212-2.6-2.212V6.969h8.231v.419c-2.52,0-1.512,2.716-1.484,2.828l4.284,11.76,2.912-8.008c.392-1.344,2.492-6.58-1.848-6.58V6.969h7.475V6.912L113.39,5.9V16.6a5.371,5.371,0,0,1,4.507-3.109c2.268,0,3.7,1.065,3.7,4.424v5.74c0,1.54.168,2.352,1.148,2.6v.42Zm6.888-17.136a1.661,1.661,0,0,1,1.652-1.68,1.71,1.71,0,0,1,1.708,1.68,1.686,1.686,0,0,1-1.708,1.651A1.637,1.637,0,0,1,124.394,9.545Z" transform="translate(0)"/></svg>