<svg xmlns="http://www.w3.org/2000/svg" xmlns:xlink="http://www.w3.org/1999/xlink" width="240.792" height="150" viewBox="0 0 240.792 150"><defs><style>.a{filter:url(#a);}</style><filter id="a" x="0" y="0" width="240.792" height="150" filterUnits="userSpaceOnUse"><feOffset dy="3" input="SourceAlpha"/><feGaussianBlur stdDeviation="5" result="b"/><feFlood flood-opacity="0.161"/><feComposite operator="in" in2="b"/><feComposite in="SourceGraphic"/></filter></defs><g class="a" transform="matrix(1, 0, 0, 1, 0, 0)"><path d="M158.513,0s10.02,34.579,18.906,59.667,25.929,56.372,25.929,56.372a80.707,80.707,0,0,1,2.705-10.231c1.455-4.624,3.7-2.67,3.7-2.67a2.185,2.185,0,0,1,.905,2.623c-.221.713-.271.871-.25.8L207.2,117.136s-.829,2.613-1.606,2.669-47.076.2-47.076.2ZM4.994,119.766S.444,112,.061,108.757s1.044-5.281,3.407-1.974a44.561,44.561,0,0,1,4.319,8.61s20.74-40.24,32-74.437S51.813,0,51.813,0s29.651,7.134,61.681,4.532S154.325.146,154.325.146L110.436,117.221s-3.658-8.523-6.1-10.64-4.046-2.107-3.663,2.176,4.977,11.009,4.977,11.009Z" transform="translate(15 12)"/></g></svg>